<?xml version="1.0" standalone="no"?>
<!DOCTYPE svg PUBLIC "-//W3C//DTD SVG 20010904//EN"
 "http://www.w3.org/TR/2001/REC-SVG-20010904/DTD/svg10.dtd">
<svg version="1.0" xmlns="http://www.w3.org/2000/svg"
 width="280.000000pt" height="280.000000pt" viewBox="0 0 280.000000 280.000000"
 preserveAspectRatio="xMidYMid meet">
<metadata>
Created by potrace 1.14, written by Peter Selinger 2001-2017
</metadata>
<g transform="translate(0.000000,280.000000) scale(0.100000,-0.100000)"
fill="#000000" stroke="none">
<path d="M16 2785 c-3 -8 0 -15 6 -17 8 -3 8 -10 0 -24 -8 -15 -8 -24 0 -32 9
-9 9 -12 1 -12 -12 0 -12 -18 -1 -35 4 -6 3 -17 -2 -25 -4 -7 -4 -24 1 -37 5
-13 5 -23 0 -23 -10 0 -9 -26 2 -36 3 -4 2 -14 -3 -24 -6 -12 -5 -23 6 -36 9
-11 13 -14 10 -8 -7 15 56 13 66 -1 5 -7 8 -6 8 1 0 11 58 13 76 1 6 -3 14 -3
18 0 12 12 56 11 56 -1 0 -7 3 -8 8 -1 8 13 92 15 92 2 0 -4 5 -5 12 -1 16 10
58 11 64 2 3 -5 13 -4 23 1 9 5 23 6 31 1 7 -4 24 -4 36 0 14 6 26 5 29 0 4
-6 13 -7 24 -1 9 5 23 6 31 1 7 -4 24 -4 36 0 14 6 26 5 29 0 4 -6 13 -7 24
-1 9 5 23 6 31 1 7 -4 24 -4 36 0 14 6 26 5 29 0 4 -6 13 -7 24 -1 9 5 23 6
31 1 7 -4 23 -4 35 0 14 5 27 4 34 -3 6 -6 11 -7 11 -1 0 11 40 12 57 1 5 -4
13 -3 17 1 11 11 50 9 58 -3 5 -7 8 -7 8 1 0 11 58 13 76 1 6 -3 14 -3 18 1
11 11 50 9 58 -3 5 -7 8 -6 8 1 0 11 58 13 76 2 5 -4 16 -3 24 2 9 5 19 5 27
-2 7 -6 13 -6 13 -1 0 5 9 9 20 9 11 0 20 -3 20 -6 0 -3 18 -5 40 -4 23 0 43
-3 46 -8 3 -5 12 -4 20 3 8 6 14 7 14 2 0 -5 6 -10 13 -11 21 -1 70 -12 107
-24 40 -12 53 -16 60 -15 3 0 16 -6 30 -13 14 -8 27 -15 30 -15 15 -3 106 -50
111 -58 3 -5 8 -7 10 -6 7 5 127 -80 169 -120 22 -21 40 -36 40 -34 0 1 17
-16 38 -39 20 -24 43 -49 50 -57 18 -19 66 -91 110 -164 27 -44 88 -200 96
-240 2 -15 7 -31 10 -35 29 -48 27 -425 -4 -481 -5 -10 -7 -21 -4 -24 3 -3 2
-12 -2 -19 -5 -7 -9 -15 -10 -18 -5 -37 -42 -127 -80 -197 -42 -79 -60 -107
-114 -177 -32 -42 -160 -163 -201 -191 -24 -17 -45 -33 -47 -37 -2 -5 -10 -8
-18 -8 -8 0 -14 -5 -14 -11 0 -5 -4 -7 -10 -4 -5 3 -10 3 -10 -2 0 -14 -184
-95 -194 -85 -3 3 -6 1 -6 -5 0 -6 -35 -18 -77 -27 -43 -9 -89 -19 -103 -22
-14 -3 -52 -6 -86 -8 -33 -2 -66 -6 -72 -10 -7 -4 -12 -4 -12 1 0 10 -80 10
-96 0 -6 -3 -14 -4 -18 0 -10 10 -56 10 -56 0 0 -6 -5 -6 -12 -1 -7 5 -26 8
-43 7 -41 -4 -46 -4 -77 1 -16 2 -30 0 -34 -5 -3 -5 -10 -6 -17 -2 -16 10 -57
10 -57 0 0 -4 -6 -5 -12 0 -18 11 -42 10 -50 -2 -5 -7 -8 -7 -8 0 0 11 -79 13
-96 2 -6 -3 -14 -4 -18 0 -10 10 -56 10 -56 0 0 -6 -5 -6 -12 -1 -7 5 -26 8
-43 7 -41 -4 -46 -4 -77 1 -16 2 -30 0 -34 -5 -3 -5 -10 -6 -17 -2 -16 10 -57
10 -57 0 0 -4 -6 -5 -12 0 -18 11 -42 10 -50 -2 -5 -7 -8 -7 -8 0 0 11 -79 13
-96 2 -6 -3 -14 -4 -18 0 -10 10 -56 10 -56 0 0 -6 -5 -6 -12 -1 -7 5 -26 8
-43 7 -37 -4 -41 -4 -86 0 -27 3 -39 -1 -48 -15 -6 -10 -8 -18 -3 -18 8 0 7
-68 -2 -77 -3 -4 -1 -12 5 -20 8 -8 8 -13 1 -13 -11 0 -11 -18 0 -35 4 -6 3
-17 -2 -25 -4 -7 -4 -24 1 -37 5 -13 5 -23 0 -23 -12 0 -8 -27 6 -41 8 -8 200
-11 655 -11 749 0 828 2 828 16 0 6 5 4 10 -4 6 -9 10 -10 10 -3 0 6 9 10 20
8 11 -2 22 1 25 6 4 5 10 7 15 4 9 -6 129 20 165 35 35 15 100 34 108 32 4 -1
7 2 7 8 0 5 7 10 15 10 19 0 189 89 193 101 2 5 8 7 13 3 5 -3 9 0 9 5 0 6 7
11 15 11 8 0 15 4 15 8 0 5 19 19 42 32 86 48 358 345 358 390 0 6 5 10 11 10
5 0 7 4 4 10 -3 5 -2 10 3 10 5 0 15 15 23 33 7 17 15 34 18 37 30 27 142 352
127 367 -3 3 0 16 5 30 31 83 28 372 -7 519 -9 38 -17 77 -19 87 -8 39 -69
192 -79 199 -6 4 -8 8 -3 8 16 0 -133 251 -154 258 -5 2 -9 8 -9 13 0 18 -146
171 -209 219 -18 14 -46 37 -63 53 -16 15 -36 27 -44 27 -8 0 -14 4 -14 8 0 5
-16 16 -35 25 -19 9 -35 21 -35 27 0 5 -3 9 -7 8 -5 -1 -39 13 -78 32 -38 19
-72 35 -75 35 -3 1 -16 6 -30 12 -14 6 -43 16 -65 23 -22 7 -47 15 -55 18 -8
3 -17 6 -20 6 -3 1 -9 4 -15 7 -5 4 -18 5 -27 4 -10 -2 -18 1 -18 6 0 6 -4 8
-8 5 -5 -3 -24 -1 -43 4 -79 20 -148 22 -851 25 -611 3 -737 1 -742 -10z"/>
</g>
</svg>
